<svg xmlns="http://www.w3.org/2000/svg" viewBox="0 0 64 64" role="img" aria-label="Duck with a heart">
  <defs>
    <linearGradient id="bg" x1="0" y1="0" x2="1" y2="1">
      <stop offset="0%" stop-color="#fff7ed" />
      <stop offset="100%" stop-color="#ffe4e6" />
    </linearGradient>
    <linearGradient id="heart" x1="0" y1="0" x2="1" y2="1">
      <stop offset="0%" stop-color="#fb7185" />
      <stop offset="100%" stop-color="#e11d48" />
    </linearGradient>
  </defs>
  <rect width="64" height="64" rx="16" fill="url(#bg)" />
  <path d="M30 16c7.5 0 13.5 5.1 15.3 11.8 1.1.4 2.1 1 2.9 1.8 1.9 1.8 3 4.4 3 7.1 0 5.5-4.2 10.1-9.6 10.6-3.6 4.3-8.9 6.7-14.4 6.7-10.6 0-19.2-7.7-19.2-17.2S19.4 16 30 16Z" fill="#fbbf24"/>
  <ellipse cx="42" cy="29" rx="8" ry="7" fill="#f59e0b" opacity="0.9"/>
  <path d="M24 37c3-3 7-4.5 11.2-4.5 5.6 0 10.5 2.8 13.2 7-1 5.9-6.5 10.3-13.1 10.3-6.8 0-11.7-4.9-11.3-12.8Z" fill="#fde68a"/>
  <circle cx="25.5" cy="27" r="2.2" fill="#1f2937"/>
  <path d="M44 34l11-1.5-3.2 7.1-7.8-.3z" fill="#fb923c"/>
  <path d="M20 46c4.7 2.9 11.7 2.9 16.6 0" fill="none" stroke="#ea580c" stroke-width="2.2" stroke-linecap="round"/>
  <path d="M48 14c0-2 1.5-3.5 3.4-3.5 1.1 0 2 .5 2.6 1.3.6-.8 1.5-1.3 2.6-1.3 1.9 0 3.4 1.5 3.4 3.5 0 4.5-6 7.3-6 7.3s-6-2.8-6-7.3Z" fill="url(#heart)"/>
</svg>
